<?xml version="1.0" encoding="UTF-8"?><svg xmlns="http://www.w3.org/2000/svg" viewBox="0 0 312.94987 62.3622"><defs><style>.cls-1{mix-blend-mode:multiply;}.cls-2{isolation:isolate;}.cls-3{fill:#1aa538;}.cls-3,.cls-4,.cls-5{stroke-width:0px;}.cls-4{fill:#1d1d1b;}.cls-5{fill:#0e51a0;}</style></defs><g class="cls-2"><g id="Ebene_1"><path class="cls-3" d="m29.41658,5.37253l-.01511,13.99247s.08705-.00484.24542-.00484c1.22105,0,6.69823.2702,9.71337,4.97123,1.63149,2.54244,2.89605,7.85641,1.19203,10.92414-1.35585,2.43968-4.21261,6.71938-10.28823,6.71938-8.30553,0-11.99044-5.0879-11.99044-10.55601,0-4.31537,1.67743-8.64948,3.47515-10.06699l-10.52699-8.14353c-1.85877,2.38829-6.48847,9.19714-6.48847,17.96873,0,11.36662,10.38434,24.66575,27.19489,24.66575,16.90061,0,23.91801-17.10675,23.91801-23.87147,0-4.61157-1.46828-24.49891-26.42962-26.59887"/><g class="cls-1"><path class="cls-5" d="m29.49915,12.50139c-4.65449,0-9.58401,1.74453-14.14359,6.77802-4.18541,4.62063-3.77013,12.75873-3.38145,15.34529l12.94793-2.75219s-.55189-2.65729.82511-4.14068c1.1473-1.23676,2.34235-1.82069,3.63654-1.82069.69334,0,1.41508.16744,2.1731.49265,2.1731.93211,3.54708,3.48905,2.19547,6.50238-.77132,1.72035-3.14148,2.45418-3.14148,2.45418l2.9281,13.35354c2.35021-.63833,12.81011-4.27427,14.74082-13.03921,2.06671-9.37849-1.78563-17.49542-8.62047-20.68888-3.00909-1.40602-6.49935-2.48441-10.16008-2.48441"/></g><path class="cls-4" d="m71.31372,27.53602c-1.2116,0-2.5895-.28508-3.4685-.68895l-.49889.76022h-.92652l-.28508-5.20275.90276-.04751c1.2116,3.18342,2.5895,4.27623,4.46629,4.27623,1.73425,0,2.77955-1.11657,2.77955-2.75579,0-1.40165-.76022-2.2569-2.85082-3.15966-.76022-.3326-1.40165-.52265-2.13812-.879-1.68674-.83149-2.63701-1.97182-2.63701-3.84861,0-2.75579,2.20939-4.29999,4.56131-4.29999,1.2116,0,2.04309.28508,2.70828.66519l.52265-.73646h.879l.40387,4.56131-.879.04751c-1.33038-2.75579-2.32817-3.6348-3.84861-3.6348-1.33038,0-2.2569.95027-2.2569,2.32817s.66519,2.16187,2.32817,2.87458c.83149.35635,1.54419.61768,2.4232,1.0453,1.9243.92652,2.87458,2.11436,2.87458,3.96739,0,3.1359-2.63701,4.72761-5.06021,4.72761Z"/><path class="cls-4" d="m82.08399,27.36972c-1.61547,0-2.44696-.879-2.44696-2.85082v-6.62816h-1.75801v-.78398l1.94806-.92652.99779-2.82706h.85525v3.06463h3.58728v1.47292h-3.58728v5.84418c0,.90276.11878,1.42541.61768,1.75801.30884.21381.68895.26133,1.52044.26133.38011,0,.90276-.04751,1.49668-.14254l.02376.66519c-1.0453.64143-2.16187,1.09281-3.25469,1.09281Z"/><path class="cls-4" d="m95.35114,25.30287c0,.68895.40387.99779,1.97182.90276l.07127.52265c-.45138.30884-1.66298.71271-2.51823.71271-.90276,0-1.3779-.45138-1.44917-1.71049l-.21381-.04751c-1.14033,1.14033-2.28066,1.75801-3.4685,1.75801-1.59171,0-2.56574-1.0453-2.56574-2.51823,0-2.37568,2.4232-3.56353,6.15302-3.89612v-1.14033c0-1.9243-.73646-2.47071-2.39944-2.47071-.78398,0-1.25911.19005-1.63922.38011.42762.30884.78398.76022.78398,1.23536,0,.73646-.54641,1.25911-1.25911,1.25911-.76022,0-1.28287-.52265-1.28287-1.28287,0-1.68674,2.54198-2.82706,4.79888-2.82706,2.04309,0,3.01712.99779,3.01712,3.1359v5.98672Zm-2.01933-3.39723c-2.89834.11878-4.1812,1.02154-4.1812,2.37568,0,1.0453.59392,1.59171,1.63922,1.59171.73646,0,1.59171-.35635,2.54198-1.02154v-2.94585Z"/><path class="cls-4" d="m110.14834,26.03933v.66519l-3.4685.85525-.23757-.19005.1663-1.78176-.21381-.04751-.02376.02376c-1.16409,1.18784-2.0906,1.97182-3.61104,1.97182-2.28066,0-4.25248-2.04309-4.25248-5.29778,0-3.3022,2.35193-6.10551,5.8917-6.10551.76022,0,1.35414.09503,1.99557.26133v-4.32375l-1.85303-.879v-.68895l3.70607-.92652.21381.1663v15.46571l1.68674.83149Zm-6.27181-.11878c.73646,0,1.59171-.40387,2.51823-1.16409v-6.29556c-.85525-.83149-1.66298-1.33038-2.73204-1.33038-1.59171,0-2.99336,1.18784-2.99336,4.49004,0,2.68452,1.25911,4.29999,3.20717,4.29999Z"/><path class="cls-4" d="m115.22389,27.36972c-1.61547,0-2.44696-.879-2.44696-2.85082v-6.62816h-1.75801v-.78398l1.94806-.92652.99779-2.82706h.85525v3.06463h3.58728v1.47292h-3.58728v5.84418c0,.90276.11878,1.42541.61768,1.75801.30884.21381.68895.26133,1.52044.26133.38011,0,.90276-.04751,1.49668-.14254l.02376.66519c-1.0453.64143-2.16187,1.09281-3.25469,1.09281Z"/><path class="cls-4" d="m128.49133,25.30287c0,.68895.40387.99779,1.97182.90276l.07127.52265c-.45138.30884-1.66298.71271-2.51823.71271-.90276,0-1.3779-.45138-1.44917-1.71049l-.21381-.04751c-1.14033,1.14033-2.28066,1.75801-3.4685,1.75801-1.59171,0-2.56574-1.0453-2.56574-2.51823,0-2.37568,2.4232-3.56353,6.15302-3.89612v-1.14033c0-1.9243-.73646-2.47071-2.39944-2.47071-.78398,0-1.25911.19005-1.63922.38011.42762.30884.78398.76022.78398,1.23536,0,.73646-.54641,1.25911-1.25911,1.25911-.76022,0-1.28287-.52265-1.28287-1.28287,0-1.68674,2.54198-2.82706,4.79888-2.82706,2.04309,0,3.01712.99779,3.01712,3.1359v5.98672Zm-2.01933-3.39723c-2.89834.11878-4.1812,1.02154-4.1812,2.37568,0,1.0453.59392,1.59171,1.63922,1.59171.73646,0,1.59171-.35635,2.54198-1.02154v-2.94585Z"/><path class="cls-4" d="m139.34941,19.26863c-.92652,0-1.33038-.68895-1.25911-1.47292-.80773.02376-1.66298.80773-2.23314,1.82928v6.27181l1.75801.52265v.76022h-5.51159v-.76022l1.68674-.52265v-7.38838l-1.66298-.85525v-.66519l3.49226-.85525.21381.19005-.19005,2.06685.23757.07127c.90276-1.3779,1.82928-2.30441,3.06463-2.30441,1.06906,0,1.71049.68895,1.71049,1.61547,0,.90276-.64143,1.49668-1.30663,1.49668Z"/><path class="cls-4" d="m149.72224,20.02885c-.92652,0-1.42541-.68895-1.42541-1.44917,0-.49889.1663-.97403.42762-1.30663-.3326-.09503-.54641-.14254-.99779-.14254-2.01933,0-3.77734,1.61547-3.77734,4.58507,0,2.66077,1.71049,4.22872,3.91988,4.22872,1.11657,0,1.82928-.28508,2.92209-.97403l.47514.54641c-1.18784,1.35414-2.63701,2.04309-4.20496,2.04309-3.15966,0-5.25026-2.18563-5.25026-5.36905,0-3.4685,2.49447-6.03424,5.91545-6.03424,2.11436,0,3.34972,1.11657,3.34972,2.35193,0,.95027-.57016,1.52044-1.35414,1.52044Z"/><path class="cls-4" d="m159.58223,17.81947c-1.0453,0-1.99557.40387-2.99336,1.09281v6.98451l1.59171.52265v.76022h-5.34529v-.76022l1.68674-.52265v-13.82648l-1.85303-.879v-.68895l3.70607-.92652.21381.1663v8.29114l.09503.04751c1.0453-.97403,2.4232-1.9243,4.01491-1.9243,2.0906,0,3.06463,1.40165,3.06463,3.3022v6.43811l1.68674.52265v.76022h-5.36905v-.76022l1.61547-.52265v-5.44032c0-1.73425-.68895-2.63701-2.11436-2.63701Z"/><path class="cls-4" d="m167.30411,17.65317v-.66519l3.6348-.85525.09503.07127v9.69279l1.59171.52265v.76022h-5.34529v-.76022l1.68674-.52265v-7.38838l-1.66298-.85525Zm2.68452-7.34087c.879,0,1.49668.66519,1.49668,1.49668,0,.85525-.66519,1.66298-1.63922,1.66298-.85525,0-1.47292-.66519-1.47292-1.52044,0-.83149.66519-1.63922,1.61547-1.63922Z"/><path class="cls-4" d="m179.73285,24.63768h.21381l1.11657-3.01712,1.18784-3.68231-1.59171-.66519v-.73646h4.65634v.76022l-1.82928.83149-3.6348,9.31268h-1.09281l-3.87237-9.55025-1.56795-.59392v-.76022h5.41656v.73646l-1.47292.49889,2.47071,6.86573Z"/><path class="cls-4" d="m203.20264,26.03933v.68895l-3.51601.83149-.21381-.1663.1663-1.78176-.21381-.04751c-1.42541,1.33038-2.54198,1.99557-3.87237,1.99557-2.0906,0-2.99336-1.56795-2.99336-3.34972v-5.86794l-1.66298-.80773v-.54641l3.51601-.85525.21381.19005v6.88949c0,1.82928.68895,2.68452,2.04309,2.68452.95027,0,1.80552-.42762,2.77955-1.09281v-6.46186l-1.68674-.80773v-.54641l3.53977-.85525.21381.19005v9.00384l1.68674.71271Z"/><path class="cls-4" d="m215.74475,25.89679l1.68674.52265v.76022h-5.36905v-.76022l1.61547-.52265v-5.44032c0-1.75801-.66519-2.63701-2.04309-2.63701-.95027,0-1.80552.42762-2.77955,1.09281v6.98451l1.59171.52265v.76022h-5.34529v-.76022l1.68674-.52265v-7.38838l-1.66298-.85525v-.66519l3.49226-.85525.21381.19005-.1663,1.78176.21381.04751c1.42541-1.33038,2.5895-1.99557,3.87237-1.99557,2.06685,0,2.99336,1.44917,2.99336,3.3022v6.43811Z"/><path class="cls-4" d="m230.37776,26.03933v.66519l-3.4685.85525-.23757-.19005.1663-1.78176-.21381-.04751-.02376.02376c-1.16409,1.18784-2.0906,1.97182-3.61104,1.97182-2.28066,0-4.25248-2.04309-4.25248-5.29778,0-3.3022,2.35193-6.10551,5.8917-6.10551.76022,0,1.35414.09503,1.99557.26133v-4.32375l-1.85303-.879v-.68895l3.70607-.92652.21381.1663v15.46571l1.68674.83149Zm-6.27181-.11878c.73646,0,1.59171-.40387,2.51823-1.16409v-6.29556c-.85525-.83149-1.66298-1.33038-2.73204-1.33038-1.59171,0-2.99336,1.18784-2.99336,4.49004,0,2.68452,1.25911,4.29999,3.20717,4.29999Z"/><path class="cls-4" d="m73.88145,48.94965h-1.18784l-5.44032-13.80273-2.20939-.61768v-.85525h7.15081v.85525l-2.32817.49889,3.96739,10.78561,3.99115-10.59555-1.80552-.68895v-.85525h5.27402v.85525l-1.99557.68895-5.41656,13.73146Z"/><path class="cls-4" d="m89.02153,46.93032c0,.68895.40387.99779,1.97182.90276l.07127.52265c-.45138.30884-1.66298.71271-2.51823.71271-.90276,0-1.3779-.45138-1.44917-1.71049l-.21381-.04751c-1.14033,1.14033-2.28066,1.75801-3.4685,1.75801-1.59171,0-2.56574-1.0453-2.56574-2.51823,0-2.37568,2.4232-3.56353,6.15302-3.89612v-1.14033c0-1.9243-.73646-2.47071-2.39944-2.47071-.78398,0-1.25911.19005-1.63922.38011.42762.30884.78398.76022.78398,1.23536,0,.73646-.54641,1.25911-1.25911,1.25911-.76022,0-1.28287-.52265-1.28287-1.28287,0-1.68674,2.54198-2.82706,4.79888-2.82706,2.04309,0,3.01712.99779,3.01712,3.1359v5.98672Zm-2.01933-3.39723c-2.89834.11878-4.1812,1.02154-4.1812,2.37568,0,1.0453.59392,1.59171,1.63922,1.59171.73646,0,1.59171-.35635,2.54198-1.02154v-2.94585Z"/><path class="cls-4" d="m103.81874,47.66678v.66519l-3.4685.85525-.23757-.19005.1663-1.78176-.21381-.04751-.02376.02376c-1.16409,1.18784-2.0906,1.97182-3.61104,1.97182-2.28066,0-4.25248-2.04309-4.25248-5.29778,0-3.3022,2.35193-6.10551,5.8917-6.10551.76022,0,1.35414.09503,1.99557.26133v-4.32375l-1.85303-.879v-.68895l3.70607-.92652.21381.1663v15.46571l1.68674.83149Zm-6.27181-.11878c.73646,0,1.59171-.40387,2.51823-1.16409v-6.29556c-.85525-.83149-1.66298-1.33038-2.73204-1.33038-1.59171,0-2.99336,1.18784-2.99336,4.49004,0,2.68452,1.25911,4.29999,3.20717,4.29999Z"/><path class="cls-4" d="m105.8086,39.28062v-.66519l3.6348-.85525.09503.07127v9.69279l1.59171.52265v.76022h-5.34529v-.76022l1.68674-.52265v-7.38838l-1.66298-.85525Zm2.68452-7.34087c.879,0,1.49668.66519,1.49668,1.49668,0,.85525-.66519,1.66298-1.63922,1.66298-.85525,0-1.47292-.66519-1.47292-1.52044,0-.83149.66519-1.63922,1.61547-1.63922Z"/><path class="cls-4" d="m121.28032,46.93032c0,.68895.40387.99779,1.97182.90276l.07127.52265c-.45138.30884-1.66298.71271-2.51823.71271-.90276,0-1.3779-.45138-1.44917-1.71049l-.21381-.04751c-1.14033,1.14033-2.28066,1.75801-3.4685,1.75801-1.59171,0-2.56574-1.0453-2.56574-2.51823,0-2.37568,2.4232-3.56353,6.15302-3.89612v-1.14033c0-1.9243-.73646-2.47071-2.39944-2.47071-.78398,0-1.25911.19005-1.63922.38011.42762.30884.78398.76022.78398,1.23536,0,.73646-.54641,1.25911-1.25911,1.25911-.76022,0-1.28287-.52265-1.28287-1.28287,0-1.68674,2.54198-2.82706,4.79888-2.82706,2.04309,0,3.01712.99779,3.01712,3.1359v5.98672Zm-2.01933-3.39723c-2.89834.11878-4.1812,1.02154-4.1812,2.37568,0,1.0453.59392,1.59171,1.63922,1.59171.73646,0,1.59171-.35635,2.54198-1.02154v-2.94585Z"/><path class="cls-4" d="m135.53593,47.52424l1.68674.52265v.76022h-5.36905v-.76022l1.61547-.52265v-5.44032c0-1.75801-.66519-2.63701-2.04309-2.63701-.95027,0-1.80552.42762-2.77955,1.09281v6.98451l1.59171.52265v.76022h-5.34529v-.76022l1.68674-.52265v-7.38838l-1.66298-.85525v-.66519l3.49226-.85525.21381.19005-.1663,1.78176.21381.04751c1.42541-1.33038,2.5895-1.99557,3.87237-1.99557,2.06685,0,2.99336,1.44917,2.99336,3.3022v6.43811Z"/><path class="cls-4" d="m139.0769,39.28062v-.66519l3.6348-.85525.09503.07127v9.69279l1.59171.52265v.76022h-5.34529v-.76022l1.68674-.52265v-7.38838l-1.66298-.85525Zm2.68452-7.34087c.879,0,1.49668.66519,1.49668,1.49668,0,.85525-.66519,1.66298-1.63922,1.66298-.85525,0-1.47292-.66519-1.47292-1.52044,0-.83149.66519-1.63922,1.61547-1.63922Z"/><path class="cls-4" d="m150.00625,49.0922c-1.28287,0-2.39944-.19005-3.58728-.64143v-2.99336l.80773-.07127c.71271,2.0906,1.71049,2.73204,3.11215,2.73204,1.16409,0,2.01933-.64143,2.01933-1.68674,0-.95027-.54641-1.44917-2.49447-2.18563-2.11436-.80773-3.27844-1.59171-3.27844-3.23093,0-1.78176,1.54419-3.25469,3.87237-3.25469,1.35414,0,2.44696.23757,3.1359.49889l.07127,2.63701-.73646.14254c-.85525-1.78176-1.66298-2.30441-2.82706-2.30441-1.06906,0-1.73425.64143-1.73425,1.44917,0,.85525.59392,1.33038,2.30441,1.97182,2.68452,1.02154,3.58728,1.78176,3.58728,3.44474,0,2.13812-1.78176,3.49226-4.25248,3.49226Z"/><path class="cls-4" d="m163.94983,41.6563c-.92652,0-1.42541-.68895-1.42541-1.44917,0-.49889.1663-.97403.42762-1.30663-.3326-.09503-.54641-.14254-.99779-.14254-2.01933,0-3.77734,1.61547-3.77734,4.58507,0,2.66077,1.71049,4.22872,3.91988,4.22872,1.11657,0,1.82928-.28508,2.92209-.97403l.47514.54641c-1.18784,1.35414-2.63701,2.04309-4.20496,2.04309-3.15966,0-5.25026-2.18563-5.25026-5.36905,0-3.4685,2.49447-6.03424,5.91545-6.03424,2.11436,0,3.34972,1.11657,3.34972,2.35193,0,.95027-.57016,1.52044-1.35414,1.52044Z"/><path class="cls-4" d="m173.7989,39.44692c-1.0453,0-1.99557.40387-2.99336,1.09281v6.98451l1.59171.52265v.76022h-5.34529v-.76022l1.68674-.52265v-13.82648l-1.85303-.879v-.68895l3.70607-.92652.21381.1663v8.29114l.09503.04751c1.0453-.97403,2.4232-1.9243,4.01491-1.9243,2.0906,0,3.06463,1.40165,3.06463,3.3022v6.43811l1.68674.52265v.76022h-5.36905v-.76022l1.61547-.52265v-5.44032c0-1.73425-.68895-2.63701-2.11436-2.63701Z"/><path class="cls-4" d="m183.07189,43.10547c0,2.75579,1.28287,4.41877,3.87237,4.41877.99779,0,1.85303-.35635,3.06463-1.14033l.42762.66519c-1.47292,1.40165-2.80331,2.13812-4.3475,2.13812-3.04088,0-5.22651-2.23314-5.22651-5.53534,0-3.34972,2.32817-5.86794,5.27402-5.86794,2.99336,0,4.44253,2.23314,4.44253,5.32153h-7.50716Zm5.17899-1.0453c-.09503-2.18563-.97403-3.34972-2.39944-3.34972-1.49668,0-2.5895,1.35414-2.75579,3.51601l5.15524-.1663Z"/><path class="cls-4" d="m203.86852,49.16347c-1.2116,0-2.5895-.28508-3.4685-.68895l-.49889.76022h-.92652l-.28508-5.20275.90276-.04751c1.2116,3.18342,2.5895,4.27623,4.46629,4.27623,1.73425,0,2.77955-1.11657,2.77955-2.75579,0-1.40165-.76022-2.2569-2.85082-3.15966-.76022-.3326-1.40165-.52265-2.13812-.879-1.68674-.83149-2.63701-1.97182-2.63701-3.84861,0-2.75579,2.20939-4.29999,4.56131-4.29999,1.2116,0,2.04309.28508,2.70828.66519l.52265-.73646h.879l.40387,4.56131-.879.04751c-1.33038-2.75579-2.32817-3.6348-3.84861-3.6348-1.33038,0-2.2569.95027-2.2569,2.32817s.66519,2.16187,2.32817,2.87458c.83149.35635,1.54419.61768,2.4232,1.0453,1.9243.92652,2.87458,2.11436,2.87458,3.96739,0,3.1359-2.63701,4.72761-5.06021,4.72761Z"/><path class="cls-4" d="m219.45151,46.93032c0,.68895.40387.99779,1.97182.90276l.07127.52265c-.45138.30884-1.66298.71271-2.51823.71271-.90276,0-1.3779-.45138-1.44917-1.71049l-.21381-.04751c-1.14033,1.14033-2.28066,1.75801-3.4685,1.75801-1.59171,0-2.56574-1.0453-2.56574-2.51823,0-2.37568,2.4232-3.56353,6.15302-3.89612v-1.14033c0-1.9243-.73646-2.47071-2.39944-2.47071-.78398,0-1.25911.19005-1.63922.38011.42762.30884.78398.76022.78398,1.23536,0,.73646-.54641,1.25911-1.25911,1.25911-.76022,0-1.28287-.52265-1.28287-1.28287,0-1.68674,2.54198-2.82706,4.79888-2.82706,2.04309,0,3.01712.99779,3.01712,3.1359v5.98672Zm-2.01933-3.39723c-2.89834.11878-4.1812,1.02154-4.1812,2.37568,0,1.0453.59392,1.59171,1.63922,1.59171.73646,0,1.59171-.35635,2.54198-1.02154v-2.94585Z"/><path class="cls-4" d="m236.29662,39.44692c-.92652,0-1.82928.54641-2.80331,1.25911v6.81821l1.63922.52265v.76022h-5.25026v-.76022l1.54419-.52265v-5.63037c0-1.61547-.61768-2.44696-1.9243-2.44696-.85525,0-1.73425.42762-2.68452,1.09281v6.98451l1.54419.52265v.76022h-5.29778v-.76022l1.68674-.52265v-7.38838l-1.66298-.85525v-.66519l3.49226-.85525.21381.19005-.1663,1.78176.21381.04751c1.40165-1.33038,2.44696-1.97182,3.72982-1.97182,1.54419,0,2.37568.97403,2.70828,2.06685l.19005.04751c1.14033-1.16409,2.4232-2.11436,3.87237-2.11436,1.90055,0,2.87458,1.18784,2.87458,3.27844v6.43811l1.71049.52265v.76022h-5.32153v-.76022l1.56795-.52265v-5.63037c0-1.61547-.59392-2.44696-1.87679-2.44696Z"/><path class="cls-4" d="m256.94643,39.44692c-.92652,0-1.82928.54641-2.80331,1.25911v6.81821l1.63922.52265v.76022h-5.25026v-.76022l1.54419-.52265v-5.63037c0-1.61547-.61768-2.44696-1.9243-2.44696-.85525,0-1.73425.42762-2.68452,1.09281v6.98451l1.54419.52265v.76022h-5.29778v-.76022l1.68674-.52265v-7.38838l-1.66298-.85525v-.66519l3.49226-.85525.21381.19005-.1663,1.78176.21381.04751c1.40165-1.33038,2.44696-1.97182,3.72982-1.97182,1.54419,0,2.37568.97403,2.70828,2.06685l.19005.04751c1.14033-1.16409,2.4232-2.11436,3.87237-2.11436,1.90055,0,2.87458,1.18784,2.87458,3.27844v6.43811l1.71049.52265v.76022h-5.32153v-.76022l1.56795-.52265v-5.63037c0-1.61547-.59392-2.44696-1.87679-2.44696Z"/><path class="cls-4" d="m269.6805,48.04689v.76022h-5.34529v-.76022l1.68674-.52265v-13.82648l-1.85303-.879v-.68895l3.70607-.92652.21381.1663v16.15465l1.59171.52265Z"/><path class="cls-4" d="m283.15441,47.66678v.68895l-3.51601.83149-.21381-.1663.1663-1.78176-.21381-.04751c-1.42541,1.33038-2.54198,1.99557-3.87237,1.99557-2.0906,0-2.99336-1.56795-2.99336-3.34972v-5.86794l-1.66298-.80773v-.54641l3.51601-.85525.21381.19005v6.88949c0,1.82928.68895,2.68452,2.04309,2.68452.95027,0,1.80552-.42762,2.77955-1.09281v-6.46186l-1.68674-.80773v-.54641l3.53977-.85525.21381.19005v9.00384l1.68674.71271Z"/><path class="cls-4" d="m295.69652,47.52424l1.68674.52265v.76022h-5.36905v-.76022l1.61547-.52265v-5.44032c0-1.75801-.66519-2.63701-2.04309-2.63701-.95027,0-1.80552.42762-2.77955,1.09281v6.98451l1.59171.52265v.76022h-5.34529v-.76022l1.68674-.52265v-7.38838l-1.66298-.85525v-.66519l3.49226-.85525.21381.19005-.1663,1.78176.21381.04751c1.42541-1.33038,2.5895-1.99557,3.87237-1.99557,2.06685,0,2.99336,1.44917,2.99336,3.3022v6.43811Z"/><path class="cls-4" d="m303.42832,45.19607c-.66519,0-.99779-.07127-1.42541-.23757-.42762.30884-.76022.68895-.76022,1.11657,0,.71271.45138.97403,1.75801.97403l2.56574-.02376c2.4232,0,3.6348.90276,3.6348,2.5895,0,2.06685-2.23314,4.1812-6.08175,4.1812-3.23093,0-4.75137-1.2116-4.75137-2.5895,0-1.14033.99779-2.06685,2.4232-2.63701l-.02376-.21381c-.95027-.30884-1.54419-.80773-1.54419-1.54419,0-.71271.68895-1.42541,1.94806-2.01933v-.19005c-1.14033-.61768-1.97182-1.68674-1.97182-3.11215,0-2.28066,1.9243-3.70607,4.3475-3.70607,1.09281,0,1.97182.3326,2.70828.80773.99779-.61768,2.01933-1.09281,2.77955-1.09281.85525,0,1.3779.52265,1.3779,1.2116,0,.78398-.49889,1.2116-1.11657,1.2116-.64143,0-1.06906-.47514-1.11657-1.14033l-1.16409.09503-.28508.35635c.64143.57016.99779,1.35414.99779,2.23314,0,2.35193-1.90055,3.72982-4.29999,3.72982Zm1.61547,3.61104l-3.42099-.04751c-.78398.47514-1.23536,1.14033-1.23536,1.9243,0,1.23536,1.47292,2.04309,3.56353,2.04309,2.01933,0,3.49226-1.06906,3.49226-2.35193,0-1.02154-.73646-1.54419-2.39944-1.56795Zm-1.56795-10.16793c-1.28287,0-2.18563.92652-2.18563,2.87458,0,2.04309.83149,2.87458,2.28066,2.87458,1.25911,0,2.06685-1.2116,2.06685-2.89834,0-1.75801-.76022-2.85082-2.16187-2.85082Z"/></g></g></svg>